<?xml version="1.0" encoding="UTF-8"?> <!-- Generator: Adobe Illustrator 18.0.0, SVG Export Plug-In . SVG Version: 6.00 Build 0) --> <svg xmlns="http://www.w3.org/2000/svg" xmlns:xlink="http://www.w3.org/1999/xlink" version="1.1" id="Layer_1" x="0px" y="0px" viewBox="0 0 1080 1296" xml:space="preserve"> <path d="M26.2,372.7c15.4,0.1,30.5,0.1,46,0.2c0.1-17,0.1-33.7,0.2-51.1c20.8,0.1,41.1,0.2,61.9,0.3c0-10.3,0.1-19.9,0.1-30.1 c6.6-0.3,12.9-0.9,19.2-0.8c44.2,0.5,88.5,0.1,132.6,2.3c30.5,1.5,60.9,5.9,91.1,10.7c37.4,5.9,73.3,17.3,106.5,35.8 c10.3,5.8,20.5,12,30,19c9.4,6.9,17.7,15.2,27,23.3c3.9-3.7,8.2-8,12.6-11.9c28.7-25.6,62.5-41.6,98.9-52.7 c41-12.4,83.2-18.1,125.8-21.4c46.8-3.6,93.6-2.9,140.4-2.2c9.3,0.1,18.5,0.1,28.4,0.1c0,11-0.1,20.7-0.1,31.2 c21,0.1,41.3,0.2,62.1,0.3c-0.1,17.4-0.1,34-0.2,51.2c15.6,0.1,30.8,0.1,46.3,0.2c-0.8,204.8-1.7,409-2.5,613.7 c-1.3,0.1-2.8,0.3-4.3,0.3c-99.5-0.4-199.1-0.8-298.6-1.2c-56.1-0.2-112.3-0.5-168.4-0.8c-3.2,0-5.2,1-7.2,3.6 c-5.5,7.2-12.8,11.2-22.2,11.1c-9.3-0.1-18.6-0.2-27.9-0.1c-9.1,0-16.4-3.9-21.7-11c-2.3-3.1-4.6-3.8-8.1-3.8 c-121.1-0.4-242.2-0.9-363.2-1.4c-33.8-0.1-67.5-0.3-101.3-0.4c-1.9,0-3.8,0-6,0C24.5,782.1,25.4,577.8,26.2,372.7z M158.2,856.9 c11.8,0,23,0,34.1,0.2c55,0.7,109.5,5.5,163.5,16.2c54.4,10.8,106.8,27.2,154,57.3c5,3.2,9.9,6.4,15.4,10c0-1.6,0-2.3,0-3 c0.2-43.7,0.5-87.5,0.7-131.2c0.3-82.6,0.6-165.2,0.9-247.8c0.2-48.4,0.3-96.8,0.7-145.1c0-4.3-1.3-7.4-4.1-10.6 c-25.8-29-58.6-46.9-94.8-59.1c-50-16.9-101.8-23-154.1-25.5c-32.5-1.5-65.1-1.2-97.6-1.7c-5.4-0.1-10.8-0.1-16.5-0.1 C159.7,496.9,158.9,676.3,158.2,856.9z M921,320.3c-1.4-0.2-2.6-0.4-3.8-0.5c-56.4-0.9-112.9-1.7-169.1,5.1 c-36.3,4.4-72,10.8-106.4,23.6c-32,11.9-60.9,28.8-84.2,54.3c-2.8,3.1-4.2,6.2-4.2,10.5c-0.1,52.3-0.3,104.7-0.5,157 c-0.2,46.8-0.4,93.7-0.6,140.5c-0.3,74.7-0.6,149.5-0.9,224.2c0,1.6,0,3.3,0,5.1c10.2-6.2,19.6-12.4,29.5-17.9 c33.4-18.5,69.2-30.9,106.2-40.1c45.4-11.3,91.5-17.5,138.1-20.2c29.9-1.7,59.9-1.7,89.8-2.4c1.3,0,2.6-0.3,4-0.5 C919.5,679.3,920.3,499.9,921,320.3z M132.1,882.4c0.7-178.2,1.5-356,2.2-534c-12.1,0-23.9-0.1-35.6-0.1 c-0.8,190.5-1.6,380.5-2.3,570.5c4.2,0,8,0,11.7,0.1c39.9,0.4,79.9,0.2,119.8,1.5c36.6,1.1,73.2,3.2,109.8,6 c45.1,3.5,89.7,10.8,133.9,20.8c8.5,1.9,16.8,4.2,26.7,6.6c-1.7-1.5-2.2-2.2-2.8-2.5c-16.7-8.4-33-17.6-50.2-24.9 c-38.6-16.6-79.2-26.2-120.6-32.4c-23.3-3.5-46.7-6.3-70.2-8.2c-23.4-1.9-47-2.4-70.5-3.1C167,882.3,149.9,882.5,132.1,882.4z M944.7,886.1c-2.3,0-3.8,0-5.3,0c-42.1-1-84.3-1.2-126.3,2.7c-30.2,2.9-60.5,6.9-90.4,12.1c-40.4,7-79.5,19-116.4,37.2 c-9,4.5-17.7,9.6-26.5,14.4c2.1,0.5,3.7,0.1,5.4-0.2c33.6-6.2,67-13.9,100.8-18.3c35.4-4.7,71.2-6.7,106.9-9 c25-1.7,50.2-2.6,75.3-2.8c36.3-0.3,72.7,0.4,109,0.7c1.1,0,2.2-0.3,3.3-0.5c0.8-190.3,1.6-380.2,2.3-570.1 c-12.1,0-23.8-0.1-35.8-0.1C946.2,530.1,945.4,707.8,944.7,886.1z"></path> </svg> 